<svg width="100" height="104" viewBox="0 0 100 104" fill="none" xmlns="http://www.w3.org/2000/svg">
<g clip-path="url(#clip0_2_16)">
<path fill-rule="evenodd" clip-rule="evenodd" d="M44.8954 0.295685C45.4439 -0.0629065 46.1485 -0.0608861 46.695 0.300845L87.2673 27.1561C88.0335 27.6632 88.25 28.7054 87.7508 29.4838C87.2517 30.2623 86.226 30.4822 85.4599 29.9751L45.7857 3.71434L5.60968 29.9803C4.84073 30.483 3.81628 30.2572 3.3215 29.4759C2.82673 28.6946 3.04899 27.6537 3.81794 27.151L44.8954 0.295685Z" fill="#13273F"/>
<path fill-rule="evenodd" clip-rule="evenodd" d="M6.0885 76.1184C6.0885 75.1894 6.82975 74.4362 7.74413 74.4362H47.8115C48.7259 74.4362 49.4671 75.1894 49.4671 76.1184C49.4671 77.0475 48.7259 77.8006 47.8115 77.8006H7.74413C6.82975 77.8006 6.0885 77.0475 6.0885 76.1184Z" fill="#13273F"/>
<path fill-rule="evenodd" clip-rule="evenodd" d="M0.0280762 85.0132C0.0280762 84.0841 0.769327 83.331 1.68371 83.331H50.1686C51.0829 83.331 51.8242 84.0841 51.8242 85.0132C51.8242 85.9423 51.0829 86.6954 50.1686 86.6954H1.68371C0.769327 86.6954 0.0280762 85.9423 0.0280762 85.0132Z" fill="#13273F"/>
<path fill-rule="evenodd" clip-rule="evenodd" d="M15.8249 30.6467C16.7393 30.6467 17.4806 31.3999 17.4806 32.3289V74.75C17.4806 75.6791 16.7393 76.4322 15.8249 76.4322C14.9106 76.4322 14.1693 75.6791 14.1693 74.75V32.3289C14.1693 31.3999 14.9106 30.6467 15.8249 30.6467Z" fill="#13273F"/>
<path fill-rule="evenodd" clip-rule="evenodd" d="M75.2526 32.1862C76.1669 32.1862 76.9082 32.9393 76.9082 33.8684V45.4999C76.9082 46.429 76.1669 47.1822 75.2526 47.1822C74.3382 47.1822 73.5969 46.429 73.5969 45.4999V33.8684C73.5969 32.9393 74.3382 32.1862 75.2526 32.1862Z" fill="#13273F"/>
<path fill-rule="evenodd" clip-rule="evenodd" d="M33.3334 31.1599C34.2477 31.1599 34.989 31.913 34.989 32.8421V75.092C34.989 76.0211 34.2477 76.7742 33.3334 76.7742C32.419 76.7742 31.6777 76.0211 31.6777 75.092V32.8421C31.6777 31.913 32.419 31.1599 33.3334 31.1599Z" fill="#13273F"/>
<path fill-rule="evenodd" clip-rule="evenodd" d="M57.7441 32.1862C58.6585 32.1862 59.3998 32.9393 59.3998 33.8684V50.6315C59.3998 51.5606 58.6585 52.3137 57.7441 52.3137C56.8298 52.3137 56.0885 51.5606 56.0885 50.6315V33.8684C56.0885 32.9393 56.8298 32.1862 57.7441 32.1862Z" fill="#13273F"/>
<path fill-rule="evenodd" clip-rule="evenodd" d="M77.7163 50.114L99.3465 57.0529C100.028 57.3833 100.539 58.0441 100.539 58.705V76.0521C100.539 95.0513 77.8867 101.99 77.7163 101.99H77.2054H76.6945C76.3538 101.99 53.8721 95.2165 53.8721 76.0521V58.705C53.8721 57.8789 54.383 57.2181 55.0643 57.0529L76.5241 50.114C77.0351 49.9488 77.3757 49.9488 77.7163 50.114ZM89.2977 71.2456C89.9475 70.6069 89.9405 69.5782 89.2821 68.9479C88.6236 68.3176 87.5631 68.3244 86.9134 68.9631L75.324 80.3549L68.852 74.077C68.1979 73.4425 67.1373 73.4425 66.4832 74.077C65.8291 74.7115 65.8291 75.7402 66.4832 76.3747L74.1474 83.8092C74.4629 84.1152 74.8912 84.2865 75.3374 84.2851C75.7835 84.2836 76.2106 84.1096 76.524 83.8016L89.2977 71.2456Z" fill="url(#paint0_linear_2_16)"/>
<path fill-rule="evenodd" clip-rule="evenodd" d="M9.45551 32.1579C9.45551 31.2289 10.1968 30.4757 11.1111 30.4757H79.798C80.7124 30.4757 81.4537 31.2289 81.4537 32.1579C81.4537 33.087 80.7124 33.8401 79.798 33.8401H11.1111C10.1968 33.8401 9.45551 33.087 9.45551 32.1579Z" fill="#13273F"/>
</g>
<defs>
<linearGradient id="paint0_linear_2_16" x1="74.8244" y1="74.1057" x2="98.1275" y2="45.423" gradientUnits="userSpaceOnUse">
<stop stop-color="#2CD19E"/>
<stop offset="1" stop-color="#3CE396"/>
</linearGradient>
<clipPath id="clip0_2_16">
<rect width="100" height="104" fill="white"/>
</clipPath>
</defs>
</svg>
